<?xml version="1.0" standalone="no"?>
<!DOCTYPE svg PUBLIC "-//W3C//DTD SVG 20010904//EN"
 "http://www.w3.org/TR/2001/REC-SVG-20010904/DTD/svg10.dtd">
<svg version="1.0" xmlns="http://www.w3.org/2000/svg"
 width="294.000000pt" height="184.000000pt" viewBox="0 0 294.000000 184.000000"
 preserveAspectRatio="xMidYMid meet">

<g transform="translate(0.000000,184.000000) scale(0.100000,-0.100000)"
fill="#000000" stroke="none">
<path d="M481 1610 c-75 -34 -138 -88 -200 -170 -119 -158 -162 -287 -118
-354 39 -58 138 -71 199 -26 l30 22 -7 -269 c-10 -362 11 -497 85 -568 41 -39
112 -46 174 -16 96 47 119 152 137 620 19 508 -2 658 -106 749 -31 28 -43 32
-93 32 -35 0 -74 -8 -101 -20z m114 -49 c0 -16 -18 -27 -57 -35 -15 -4 -54
-31 -87 -62 -58 -53 -91 -65 -91 -31 0 16 84 99 130 126 40 24 105 25 105 2z
m-237 -174 c9 -10 5 -23 -14 -50 -24 -36 -47 -47 -59 -27 -7 11 9 45 33 73 18
20 26 21 40 4z"/>
<path d="M1337 1616 c-115 -33 -216 -121 -279 -243 -129 -246 -129 -656 0
-909 86 -169 246 -262 434 -252 140 7 240 65 322 185 93 138 137 314 137 558
1 346 -105 567 -308 646 -72 28 -233 36 -306 15z m161 -72 c3 -19 -3 -23 -47
-29 -56 -8 -71 -2 -71 25 0 20 28 29 85 26 23 -1 31 -6 33 -22z m-150 -26 c2
-10 -15 -28 -41 -47 -79 -54 -132 -128 -157 -219 -9 -36 -15 -43 -33 -40 -18
2 -21 9 -19 33 9 85 112 233 192 275 39 21 54 21 58 -2z m183 -314 c42 -21 66
-81 79 -195 19 -165 -7 -319 -65 -386 -28 -32 -38 -38 -73 -38 -80 0 -133 71
-153 205 -14 90 -6 229 17 297 38 115 113 160 195 117z m156 -564 c6 -30 -57
-120 -103 -150 -57 -36 -120 -48 -141 -27 -22 21 -10 33 39 41 64 10 113 47
140 106 18 39 28 50 43 48 11 -2 21 -10 22 -18z"/>
<path d="M2452 1601 c-142 -69 -321 -318 -322 -447 0 -96 113 -156 198 -104
18 11 34 20 36 20 3 0 6 -147 8 -327 4 -306 6 -332 26 -393 34 -99 77 -140
150 -140 89 0 146 48 176 148 23 78 35 221 46 550 15 425 -5 579 -88 673 -37
41 -42 43 -103 46 -55 4 -73 0 -127 -26z m128 -41 c0 -21 -4 -24 -52 -34 -15
-3 -54 -31 -87 -62 -38 -35 -67 -54 -76 -50 -26 10 -17 30 38 83 61 60 100 82
145 83 26 0 32 -4 32 -20z m-232 -182 c4 -21 -37 -78 -55 -78 -25 0 -26 30 -2
65 25 36 51 42 57 13z"/>
</g>
</svg>
