<?xml version="1.0" standalone="no"?>
<!DOCTYPE svg PUBLIC "-//W3C//DTD SVG 20010904//EN"
 "http://www.w3.org/TR/2001/REC-SVG-20010904/DTD/svg10.dtd">
<svg version="1.0" xmlns="http://www.w3.org/2000/svg"
 width="332.000000pt" height="324.000000pt" viewBox="0 0 332.000000 324.000000"
 preserveAspectRatio="xMidYMid meet">

<g transform="translate(0.000000,324.000000) scale(0.100000,-0.100000)"
fill="#000000" stroke="none">
<path d="M730 3205 c-320 -64 -564 -312 -626 -632 -21 -110 -21 -1796 0 -1905
63 -325 309 -572 633 -634 110 -21 1796 -21 1906 0 324 62 570 309 633 634 21
108 21 1796 0 1904 -63 325 -309 572 -633 634 -105 20 -1813 19 -1913 -1z
m1965 -106 c234 -73 411 -252 477 -484 l23 -80 0 -905 c0 -1022 3 -984 -78
-1143 -58 -114 -180 -236 -294 -294 -158 -81 -122 -78 -1133 -78 -834 0 -900
1 -973 18 -241 57 -439 249 -509 492 l-23 80 0 915 0 915 23 80 c34 119 92
217 181 306 113 112 243 178 396 199 33 4 458 7 945 6 l885 -1 80 -26z"/>
<path d="M1573 2295 c-121 -33 -236 -113 -295 -204 l-28 -45 0 127 0 127 -178
0 -179 0 -199 -211 c-109 -116 -199 -215 -199 -219 0 -15 279 -248 291 -243
12 4 14 -54 14 -341 l0 -346 225 0 225 0 0 127 0 127 28 -45 c60 -93 175 -172
299 -204 33 -9 101 -15 160 -15 183 0 339 70 429 193 69 93 77 130 83 380 l6
219 58 -51 c34 -30 63 -48 72 -45 12 5 14 -41 14 -338 l0 -343 226 -3 225 -2
0 680 0 680 -177 0 -178 1 -136 -142 -136 -142 -23 48 c-49 100 -175 195 -306
229 -77 20 -249 20 -321 1z m242 -85 c147 -21 271 -110 315 -226 19 -51 20
-78 20 -364 0 -286 -1 -313 -20 -364 -74 -196 -350 -288 -593 -196 -76 29
-166 112 -198 182 -24 52 -24 57 -24 378 0 321 0 326 24 378 32 70 122 153
198 182 96 37 172 45 278 30z m-663 -590 l-2 -580 -130 0 -130 0 0 391 0 391
-51 -37 c-59 -44 -61 -44 -153 40 l-59 53 154 161 154 161 110 0 110 0 -3
-580z m1598 0 l0 -580 -130 0 -130 0 0 390 0 391 -52 -36 c-29 -19 -56 -35
-61 -35 -5 0 -35 24 -68 53 -49 42 -59 57 -57 79 2 18 46 71 141 172 l139 146
109 0 109 0 0 -580z"/>
<path d="M1652 1943 c-59 -29 -62 -43 -62 -338 l0 -267 30 -28 c55 -51 166
-51 224 0 l31 28 3 259 c2 231 1 262 -15 293 -33 64 -136 90 -211 53z m123
-328 l0 -240 -42 -3 -43 -3 0 246 0 246 43 -3 42 -3 0 -240z"/>
</g>
</svg>
