<?xml version="1.0" standalone="no"?>
<!DOCTYPE svg PUBLIC "-//W3C//DTD SVG 20010904//EN"
 "http://www.w3.org/TR/2001/REC-SVG-20010904/DTD/svg10.dtd">
<svg version="1.0" xmlns="http://www.w3.org/2000/svg"
 width="184.000000pt" height="100.000000pt" viewBox="0 0 184.000000 100.000000"
 preserveAspectRatio="xMidYMid meet">

<g transform="translate(0.000000,100.000000) scale(0.100000,-0.100000)"
fill="#000000" stroke="none">
<path d="M723 797 c-61 -65 -88 -114 -102 -190 -21 -115 21 -208 120 -262 48
-27 64 -30 143 -31 l89 -1 49 -96 48 -97 53 21 c28 12 58 23 65 26 18 8 16 15
-38 123 l-50 99 25 37 c14 20 25 46 25 58 0 56 -66 96 -159 96 -83 0 -106 -21
-98 -91 l6 -49 -35 0 c-54 0 -84 36 -84 100 0 66 26 116 97 185 30 31 54 57
52 59 -12 11 -131 66 -142 66 -8 0 -37 -24 -64 -53z"/>
<path d="M223 824 c-52 -19 -99 -70 -113 -124 -20 -76 21 -165 97 -211 21 -12
40 -24 42 -26 2 -1 -17 -21 -42 -44 -26 -22 -47 -46 -47 -53 0 -6 38 -41 85
-76 84 -64 103 -90 92 -129 -4 -16 5 -22 56 -36 34 -9 67 -19 73 -22 17 -6 44
48 44 89 0 31 -41 107 -58 108 -4 1 -25 16 -46 35 l-39 35 68 71 c37 39 76 90
86 113 42 93 11 197 -74 250 -58 36 -158 45 -224 20z m147 -136 c11 -12 20
-30 20 -41 0 -27 -30 -87 -44 -87 -14 0 -57 29 -73 50 -49 61 43 136 97 78z"/>
<path d="M1365 826 c-93 -30 -139 -70 -151 -130 -8 -47 12 -111 48 -151 28
-33 29 -38 18 -65 -7 -17 -11 -53 -8 -85 9 -103 93 -171 227 -182 l72 -6 30
-58 c32 -64 23 -62 112 -25 l37 16 -25 50 -25 50 21 29 c25 33 28 73 8 98 -22
26 -90 53 -137 53 -52 0 -98 -37 -87 -70 5 -15 2 -20 -12 -20 -32 0 -63 29
-63 59 0 49 64 91 141 91 45 0 47 7 20 85 -17 48 -19 50 -60 53 -24 2 -63 -4
-88 -12 -54 -18 -63 -15 -63 24 0 40 37 63 111 68 66 5 67 5 46 87 l-13 50
-60 2 c-32 1 -77 -4 -99 -11z"/>
</g>
</svg>
