<?xml version="1.0" standalone="no"?>
<!DOCTYPE svg PUBLIC "-//W3C//DTD SVG 20010904//EN"
 "http://www.w3.org/TR/2001/REC-SVG-20010904/DTD/svg10.dtd">
<svg version="1.0" xmlns="http://www.w3.org/2000/svg"
 width="280.000000pt" height="289.000000pt" viewBox="0 0 280.000000 289.000000"
 preserveAspectRatio="xMidYMid meet">

<g transform="translate(0.000000,289.000000) scale(0.100000,-0.100000)"
fill="#000000" stroke="none">
<path d="M1242 2800 c-117 -17 -233 -104 -289 -217 l-28 -58 -3 -1075 c-3
-1188 -6 -1119 61 -1224 70 -110 179 -164 347 -173 247 -13 394 57 473 225
l32 67 0 1085 0 1085 -31 65 c-37 78 -105 149 -177 184 -83 41 -246 56 -385
36z m171 -371 c14 -6 30 -22 36 -36 8 -17 11 -296 11 -963 0 -667 -3 -946 -11
-963 -22 -49 -86 -61 -124 -22 l-25 24 0 961 0 961 25 24 c26 27 51 31 88 14z"/>
<path d="M60 2610 l0 -169 118 -3 117 -3 3 -1177 2 -1178 190 0 190 0 0 1350
0 1350 -310 0 -310 0 0 -170z"/>
<path d="M2080 2610 l0 -169 115 -3 115 -3 3 -1175 2 -1175 193 -3 192 -2 0
1350 0 1350 -310 0 -310 0 0 -170z"/>
</g>
</svg>
