<?xml version="1.0" standalone="no"?>
<!DOCTYPE svg PUBLIC "-//W3C//DTD SVG 20010904//EN"
 "http://www.w3.org/TR/2001/REC-SVG-20010904/DTD/svg10.dtd">
<svg version="1.0" xmlns="http://www.w3.org/2000/svg"
 width="348.000000pt" height="347.000000pt" viewBox="0 0 348.000000 347.000000"
 preserveAspectRatio="xMidYMid meet">
<metadata>
Created @ none
</metadata>
<g transform="translate(0.000000,347.000000) scale(0.100000,-0.100000)"
fill="#000000" stroke="none">
<path d="M640 3234 c-231 -49 -426 -247 -475 -479 -21 -102 -21 -908 0 -1010
49 -235 245 -431 480 -480 100 -21 660 -21 760 0 235 49 431 245 480 480 21
102 21 908 0 1010 -49 235 -245 431 -480 480 -97 20 -670 20 -765 -1z m786
-267 c77 -36 154 -113 191 -192 l28 -60 0 -465 0 -465 -28 -61 c-36 -77 -113
-154 -192 -191 l-60 -28 -340 0 -340 0 -60 28 c-79 37 -156 114 -192 191 l-28
61 0 465 0 465 28 60 c48 103 150 189 254 214 21 5 182 9 358 8 l320 -2 61
-28z"/>
<path d="M925 2737 c-109 -37 -195 -112 -242 -212 l-28 -60 -3 -307 c-3 -341
-2 -350 61 -388 59 -36 130 -18 167 43 15 24 20 50 20 110 l0 77 125 0 125 0
0 -77 c0 -60 5 -86 20 -110 37 -61 108 -79 167 -43 63 38 64 47 61 388 l-3
307 -28 61 c-36 78 -114 155 -192 190 -71 33 -186 42 -250 21z m156 -252 c50
-26 69 -69 69 -157 l0 -78 -125 0 -125 0 0 75 c0 88 16 127 63 155 39 24 78
25 118 5z"/>
<path d="M2192 3233 c-85 -42 -84 -176 2 -217 43 -20 69 -20 112 0 41 20 64
59 64 109 0 50 -23 89 -64 109 -43 20 -72 20 -114 -1z"/>
<path d="M2692 3233 c-85 -42 -84 -176 2 -217 43 -20 69 -20 112 0 41 20 64
59 64 109 0 50 -23 89 -64 109 -43 20 -72 20 -114 -1z"/>
<path d="M2692 2733 c-59 -29 -81 -107 -48 -170 16 -32 69 -63 106 -63 36 0
90 31 105 61 33 64 10 145 -49 173 -43 20 -72 20 -114 -1z"/>
<path d="M2163 2230 c-61 -37 -79 -108 -43 -167 34 -57 38 -58 380 -63 l315
-5 60 -28 c79 -37 156 -114 192 -191 l28 -61 0 -465 0 -465 -28 -61 c-36 -77
-113 -154 -192 -191 l-60 -28 -340 0 -340 0 -60 28 c-80 37 -156 114 -191 191
-24 53 -28 78 -34 196 -4 104 -10 141 -23 161 -48 73 -173 64 -211 -15 -21
-44 -22 -223 -1 -321 49 -235 245 -431 480 -480 100 -21 660 -21 760 0 235 49
431 245 480 480 21 102 21 908 0 1010 -37 179 -165 345 -327 424 -129 64 -179
71 -518 71 -275 0 -297 -1 -327 -20z"/>
<path d="M2413 1730 c-47 -28 -63 -67 -63 -155 l0 -75 -77 0 c-89 0 -132 -19
-158 -69 -30 -59 -10 -126 48 -161 24 -15 50 -20 110 -20 l77 0 0 -77 c0 -60
-5 -86 -20 -110 -22 -36 -66 -63 -105 -63 -62 0 -125 -63 -125 -125 0 -41 32
-90 71 -111 59 -30 218 6 282 64 15 13 21 14 35 4 89 -65 232 -98 291 -68 39
21 71 70 71 111 0 62 -63 125 -125 125 -39 0 -83 27 -105 63 -15 24 -20 50
-20 110 l0 77 78 0 c59 0 85 5 109 20 61 37 79 108 43 167 -28 47 -67 63 -155
63 l-75 0 0 78 c0 59 -5 85 -20 109 -37 61 -108 79 -167 43z"/>
<path d="M692 983 c-85 -42 -84 -176 2 -217 43 -20 69 -20 112 0 86 41 86 177
0 218 -43 20 -72 20 -114 -1z"/>
<path d="M692 483 c-59 -29 -81 -107 -48 -170 16 -32 69 -63 106 -63 12 0 37
7 56 16 86 41 86 177 0 218 -43 20 -72 20 -114 -1z"/>
<path d="M1192 483 c-85 -42 -84 -176 2 -217 43 -20 69 -20 112 0 41 20 64 59
64 109 0 50 -23 89 -64 109 -43 20 -72 20 -114 -1z"/>
</g>
</svg>
