<svg xmlns="http://www.w3.org/2000/svg" xmlns:xlink="http://www.w3.org/1999/xlink" width="464" height="462.667" viewBox="0 0 348 347" preserveAspectRatio="xMidYMid meet" xmlns:v="https://vecta.io/nano"><path d="M64 23.6c-23.1 4.9-42.6 24.7-47.5 47.9-2.1 10.2-2.1 90.8 0 101 4.9 23.5 24.5 43.1 48 48 10 2.1 66 2.1 76 0 23.5-4.9 43.1-24.5 48-48 2.1-10.2 2.1-90.8 0-101-4.9-23.5-24.5-43.1-48-48-9.7-2-67-2-76.5.1zm78.6 26.7c7.7 3.6 15.4 11.3 19.1 19.2l2.8 6V122v46.5l-2.8 6.1c-3.6 7.7-11.3 15.4-19.2 19.1l-6 2.8h-34-34l-6-2.8c-7.9-3.7-15.6-11.4-19.2-19.1l-2.8-6.1V122 75.5l2.8-6c4.8-10.3 15-18.9 25.4-21.4 2.1-.5 18.2-.9 35.8-.8l32 .2 6.1 2.8zm-50.1 23C81.6 77 73 84.5 68.3 94.5l-2.8 6-.3 30.7c-.3 34.1-.2 35 6.1 38.8 5.9 3.6 13 1.8 16.7-4.3 1.5-2.4 2-5 2-11V147h12.5H115v7.7c0 6 .5 8.6 2 11 3.7 6.1 10.8 7.9 16.7 4.3 6.3-3.8 6.4-4.7 6.1-38.8l-.3-30.7-2.8-6.1c-3.6-7.8-11.4-15.5-19.2-19-7.1-3.3-18.6-4.2-25-2.1zm15.6 25.2c5 2.6 6.9 6.9 6.9 15.7v7.8h-12.5H90v-7.5c0-8.8 1.6-12.7 6.3-15.5 3.9-2.4 7.8-2.5 11.8-.5z"/><use xlink:href="#B"/><use xlink:href="#B" x="50"/><path d="M269.2 73.7c-5.9 2.9-8.1 10.7-4.8 17 1.6 3.2 6.9 6.3 10.6 6.3 3.6 0 9-3.1 10.5-6.1 3.3-6.4 1-14.5-4.9-17.3-4.3-2-7.2-2-11.4.1zM216.3 124c-6.1 3.7-7.9 10.8-4.3 16.7 3.4 5.7 3.8 5.8 38 6.3l31.5.5 6 2.8c7.9 3.7 15.6 11.4 19.2 19.1l2.8 6.1V222v46.5l-2.8 6.1c-3.6 7.7-11.3 15.4-19.2 19.1l-6 2.8h-34-34l-6-2.8c-8-3.7-15.6-11.4-19.1-19.1-2.4-5.3-2.8-7.8-3.4-19.6-.4-10.4-1-14.1-2.3-16.1-4.8-7.3-17.3-6.4-21.1 1.5-2.1 4.4-2.2 22.3-.1 32.1 4.9 23.5 24.5 43.1 48 48 10 2.1 66 2.1 76 0 23.5-4.9 43.1-24.5 48-48 2.1-10.2 2.1-90.8 0-101-3.7-17.9-16.5-34.5-32.7-42.4-12.9-6.4-17.9-7.1-51.8-7.1-27.5 0-29.7.1-32.7 2zm25 50c-4.7 2.8-6.3 6.7-6.3 15.5v7.5h-7.7c-8.9 0-13.2 1.9-15.8 6.9-3 5.9-1 12.6 4.8 16.1 2.4 1.5 5 2 11 2h7.7v7.7c0 6-.5 8.6-2 11-2.2 3.6-6.6 6.3-10.5 6.3-6.2 0-12.5 6.3-12.5 12.5 0 4.1 3.2 9 7.1 11.1 5.9 3 21.8-.6 28.2-6.4 1.5-1.3 2.1-1.4 3.5-.4 8.9 6.5 23.2 9.8 29.1 6.8 3.9-2.1 7.1-7 7.1-11.1 0-6.2-6.3-12.5-12.5-12.5-3.9 0-8.3-2.7-10.5-6.3-1.5-2.4-2-5-2-11V222h7.8c5.9 0 8.5-.5 10.9-2 6.1-3.7 7.9-10.8 4.3-16.7-2.8-4.7-6.7-6.3-15.5-6.3H260v-7.8c0-5.9-.5-8.5-2-10.9-3.7-6.1-10.8-7.9-16.7-4.3zM69.2 248.7c-8.5 4.2-8.4 17.6.2 21.7 4.3 2 6.9 2 11.2 0 8.6-4.1 8.6-17.7 0-21.8-4.3-2-7.2-2-11.4.1zm0 50c-5.9 2.9-8.1 10.7-4.8 17 1.6 3.2 6.9 6.3 10.6 6.3 1.2 0 3.7-.7 5.6-1.6 8.6-4.1 8.6-17.7 0-21.8-4.3-2-7.2-2-11.4.1z"/><use xlink:href="#B" x="-100" y="275"/><defs ><path id="B" d="M219.2 23.7c-8.5 4.2-8.4 17.6.2 21.7 4.3 2 6.9 2 11.2 0 4.1-2 6.4-5.9 6.4-10.9s-2.3-8.9-6.4-10.9c-4.3-2-7.2-2-11.4.1z"/></defs></svg>