<?xml version="1.0" standalone="no"?>
<!DOCTYPE svg PUBLIC "-//W3C//DTD SVG 20010904//EN"
 "http://www.w3.org/TR/2001/REC-SVG-20010904/DTD/svg10.dtd">
<svg version="1.0" xmlns="http://www.w3.org/2000/svg"
 width="283.000000pt" height="327.000000pt" viewBox="0 0 283.000000 327.000000"
 preserveAspectRatio="xMidYMid meet">

<g transform="translate(0.000000,327.000000) scale(0.100000,-0.100000)"
fill="#000000" stroke="none">
<path d="M1310 3140 c-132 -78 -162 -85 -322 -82 l-137 2 8 -27 c7 -22 91
-247 126 -336 7 -16 35 -17 438 -15 l431 3 68 175 c37 96 67 181 68 187 0 9
-36 12 -142 11 -164 -2 -183 3 -312 82 -50 31 -93 50 -111 50 -18 0 -64 -20
-115 -50z"/>
<path d="M853 2486 c-39 -34 -39 -95 0 -133 l27 -28 503 -3 c276 -2 522 0 546
3 87 13 121 97 62 156 l-29 29 -541 0 -540 0 -28 -24z"/>
<path d="M790 2124 c-182 -91 -415 -401 -535 -712 -97 -252 -124 -532 -70
-720 114 -392 541 -602 1225 -602 770 0 1206 261 1249 748 33 371 -162 856
-466 1158 -68 68 -110 101 -163 128 l-73 36 -547 0 -547 0 -73 -36z m375 -525
c26 -7 56 -28 86 -59 55 -56 74 -118 67 -219 -10 -141 -94 -225 -224 -225 -76
0 -141 35 -182 96 -24 37 -27 52 -30 145 -3 90 -1 109 18 148 48 99 154 144
265 114z m559 0 c33 -15 57 -67 48 -102 -9 -32 -554 -781 -585 -802 -25 -18
-70 -20 -99 -4 -26 14 -49 69 -41 100 8 28 532 751 574 792 31 29 63 34 103
16z m57 -413 c44 -8 113 -65 139 -117 27 -53 28 -206 1 -264 -46 -102 -175
-153 -279 -110 -99 42 -148 134 -140 265 7 123 62 198 167 226 25 7 53 11 61
9 8 -2 31 -6 51 -9z"/>
<path d="M1072 1408 c-18 -18 -15 -103 4 -119 30 -25 49 1 49 67 0 51 -3 59
-20 62 -11 1 -26 -3 -33 -10z"/>
<path d="M1701 996 c-7 -8 -11 -37 -9 -68 3 -47 6 -53 27 -56 31 -5 41 12 41
69 0 61 -30 90 -59 55z"/>
</g>
</svg>
